<?xml version="1.0" standalone="no"?>
<!DOCTYPE svg PUBLIC "-//W3C//DTD SVG 20010904//EN"
 "http://www.w3.org/TR/2001/REC-SVG-20010904/DTD/svg10.dtd">
<svg version="1.0" xmlns="http://www.w3.org/2000/svg"
 width="200.000000pt" height="200.000000pt" viewBox="0 0 200.000000 200.000000"
 preserveAspectRatio="xMidYMid meet">

<g transform="translate(0.000000,200.000000) scale(0.100000,-0.100000)"
fill="#000000" stroke="none">
<path d="M940 1460 c-80 -38 -149 -71 -155 -73 -13 -5 11 -81 30 -97 13 -11
42 -1 176 61 89 40 164 79 166 87 3 7 -2 31 -12 53 -13 28 -24 39 -39 38 -12
0 -86 -32 -166 -69z"/>
<path d="M1015 1319 c-60 -28 -113 -54 -117 -58 -4 -3 12 -47 35 -96 24 -50
49 -105 56 -122 8 -18 17 -33 21 -33 18 0 241 111 238 119 -17 46 -112 241
-117 241 -3 -1 -55 -24 -116 -51z"/>
<path d="M795 1141 c-34 -16 -169 -72 -300 -126 -237 -96 -278 -118 -288 -156
-7 -27 29 -69 60 -69 22 0 429 162 618 245 l55 25 -27 55 c-16 32 -33 55 -43
54 -8 0 -42 -13 -75 -28z"/>
<path d="M1148 1027 c-86 -40 -160 -75 -164 -79 -9 -10 24 -95 39 -101 7 -2
85 29 175 71 135 62 162 78 162 96 0 23 -35 86 -47 86 -5 -1 -79 -33 -165 -73z"/>
<path d="M747 712 c-10 -10 -17 -33 -17 -50 l0 -32 465 0 465 0 0 28 c0 15 -7
38 -16 50 l-15 22 -433 0 c-407 0 -434 -1 -449 -18z"/>
<path d="M607 572 c-21 -23 -22 -66 -1 -86 14 -14 81 -16 589 -16 l575 0 15
24 c19 29 11 72 -15 86 -12 6 -236 10 -583 10 -534 0 -565 -1 -580 -18z"/>
</g>
</svg>
