<?xml version="1.0" standalone="no"?>
<!DOCTYPE svg PUBLIC "-//W3C//DTD SVG 20010904//EN"
 "http://www.w3.org/TR/2001/REC-SVG-20010904/DTD/svg10.dtd">
<svg version="1.0" xmlns="http://www.w3.org/2000/svg"
 width="200.000000pt" height="200.000000pt" viewBox="0 0 200.000000 200.000000"
 preserveAspectRatio="xMidYMid meet">
<metadata>
Created by potrace 1.15, written by Peter Selinger 2001-2017
</metadata>
<g transform="translate(0.000000,200.000000) scale(0.100000,-0.100000)"
fill="#000000" stroke="none">
<path d="M415 1794 c-102 -16 -192 -61 -267 -132 -104 -99 -148 -204 -148
-353 0 -149 46 -255 155 -359 51 -48 164 -110 199 -110 19 0 28 -19 50 -102
10 -38 23 -68 30 -68 6 0 36 7 66 15 30 8 60 15 66 15 6 0 16 -25 23 -55 13
-58 38 -85 78 -85 23 0 27 -7 23 -48 -2 -31 28 -118 46 -133 8 -7 32 -15 52
-18 31 -5 37 -11 43 -40 8 -41 21 -53 77 -75 53 -20 81 -20 110 0 27 18 53 12
87 -22 41 -41 82 -31 124 30 33 48 38 68 27 113 -4 18 -5 42 -1 53 6 19 11 17
95 -25 l90 -45 39 79 40 78 58 6 c182 17 349 157 404 338 28 92 23 234 -10
321 -47 123 -157 232 -280 279 -70 26 -197 35 -274 20 -181 -38 -326 -179
-373 -364 -29 -113 -3 -284 56 -366 l21 -30 -41 -81 -40 -80 84 -42 c82 -40
84 -42 74 -68 -5 -15 -20 -32 -33 -38 -13 -6 -36 -29 -51 -52 -15 -22 -32 -40
-40 -40 -14 0 -44 27 -44 39 0 15 -98 51 -138 51 -35 0 -39 2 -35 20 6 23 -22
106 -45 133 -8 9 -27 17 -42 17 -31 0 -40 14 -33 52 3 13 -2 47 -10 75 l-15
51 58 12 c88 19 86 16 61 110 l-22 81 40 44 c196 212 141 579 -110 733 -81 49
-231 80 -324 66z m178 -232 c170 -75 216 -292 92 -430 -63 -70 -127 -96 -222
-90 -87 6 -148 39 -200 106 -42 55 -57 111 -50 190 14 183 211 299 380 224z
m1042 -320 c55 -27 118 -98 140 -155 21 -57 17 -155 -10 -207 -24 -48 -82
-107 -130 -133 -31 -17 -57 -22 -120 -22 -69 0 -86 4 -127 27 -166 98 -196
301 -64 433 30 30 70 59 96 68 60 22 161 17 215 -11z"/>
</g>
</svg>
