<?xml version="1.0" standalone="no"?>
<!DOCTYPE svg PUBLIC "-//W3C//DTD SVG 20010904//EN"
 "http://www.w3.org/TR/2001/REC-SVG-20010904/DTD/svg10.dtd">
<svg version="1.0" xmlns="http://www.w3.org/2000/svg"
 width="200.000000pt" height="200.000000pt" viewBox="0 0 200.000000 200.000000"
 preserveAspectRatio="xMidYMid meet">

<g transform="translate(0.000000,200.000000) scale(0.100000,-0.100000)"
fill="#000000" stroke="none">
<path d="M360 1776 c-175 -50 -299 -176 -345 -353 -60 -232 74 -480 307 -567
l62 -24 19 -68 c10 -38 20 -74 22 -81 3 -8 24 -6 77 8 40 10 74 19 74 19 1 0
7 -21 14 -47 19 -71 35 -93 70 -93 31 0 37 -12 38 -73 0 -15 10 -48 23 -75 21
-42 28 -48 63 -52 41 -5 51 -16 61 -63 4 -21 17 -33 48 -47 45 -21 112 -26
122 -10 13 20 66 11 87 -16 16 -20 28 -24 57 -22 31 3 41 10 69 53 27 40 32
56 27 80 -9 41 -9 84 -1 92 4 4 45 -12 92 -35 47 -23 88 -40 92 -38 4 2 22 35
41 73 l33 69 75 12 c178 28 316 142 383 317 33 86 34 224 1 318 -112 327 -531
429 -782 190 -91 -86 -131 -165 -150 -291 -13 -91 3 -181 50 -274 l38 -77 -38
-68 c-21 -37 -39 -70 -39 -73 0 -4 36 -24 80 -45 50 -25 80 -45 79 -55 -1 -29
-15 -51 -39 -63 -14 -7 -36 -29 -49 -50 -30 -46 -75 -52 -93 -12 -13 28 -99
65 -144 62 -26 -2 -29 1 -35 44 -9 62 -34 108 -67 121 -55 21 -57 23 -54 64 2
22 -3 59 -11 81 l-14 41 68 18 c79 20 78 18 50 119 l-19 69 43 49 c77 85 114
186 115 312 0 217 -136 396 -349 459 -64 19 -187 20 -251 2z m235 -210 c188
-87 224 -329 70 -464 -58 -51 -136 -77 -206 -69 -152 18 -252 126 -253 272 -1
86 34 166 96 219 80 68 200 86 293 42z m1037 -318 c54 -23 119 -89 144 -145
22 -50 22 -165 0 -216 -9 -20 -33 -56 -53 -78 -137 -152 -379 -113 -464 75
-23 51 -25 162 -4 213 64 152 225 216 377 151z m-1012 -298 c6 -11 8 -31 4
-45 -4 -16 0 -34 10 -50 17 -26 15 -29 -26 -39 -26 -6 -28 -4 -28 24 0 17 -9
44 -21 59 -17 23 -19 32 -10 50 15 27 57 28 71 1z m58 -237 c5 -10 12 -30 16
-45 5 -22 3 -25 -14 -21 -18 5 -25 -5 -21 -29 0 -5 -3 -8 -8 -8 -12 0 -35 96
-26 110 10 16 43 12 53 -7z m686 -49 c22 -21 20 -31 -8 -57 -14 -13 -28 -35
-31 -50 -8 -30 -21 -33 -49 -12 -19 15 -19 15 3 39 15 16 21 31 17 44 -7 22
16 52 39 52 7 0 21 -7 29 -16z m-565 -167 c23 -61 23 -67 3 -67 -11 0 -22 -6
-25 -12 -6 -17 -13 -9 -32 36 -9 21 -11 35 -5 31 16 -10 40 14 33 32 -4 11 -3
14 6 9 7 -5 16 -18 20 -29z m170 -159 c18 -6 21 -11 12 -22 -6 -7 -8 -21 -5
-31 6 -14 3 -16 -17 -10 -34 10 -57 24 -41 25 18 0 15 31 -5 47 -16 13 -16 13
7 7 14 -4 36 -11 49 -16z m225 -18 c6 0 18 6 25 13 11 10 11 8 1 -13 -34 -66
-75 -105 -63 -59 3 12 0 24 -7 29 -9 6 -8 15 6 41 17 31 19 32 22 12 2 -13 9
-23 16 -23z"/>
</g>
</svg>
